<svg id="Layer_1" data-name="Layer 1" xmlns="http://www.w3.org/2000/svg" viewBox="0 0 1075.76 895.1"><defs><style>.cls-1{fill:#fff;}</style></defs><title>arrow</title><path class="cls-1" d="M2.12,500.05c1.69-.21,2-1.55,2.52-2.86,11.79-29.35,29.31-41.25,61-41.25q350.22,0,700.43,0h12.13l1.67-2.83c-3-2.22-6.38-4.1-9-6.72Q665,340.54,559.39,234.57c-30.87-30.95-30.86-64.42,0-95.32q12.24-12.27,24.49-24.52c29.63-29.58,63.47-29.73,92.92-.31q94.72,94.64,189.36,189.34l188.6,188.61c30.92,30.93,30.89,64.23-.09,95.21L678.15,964.06c-31.22,31.21-64,31.32-95.16.33-8.68-8.64-17.4-17.25-26-26-27.64-27.89-27.61-61.77.35-89.68q107.38-107.22,215-214.24c2.93-2.92,6.07-5.64,11.32-10.5H769q-348.63,0-697.27.24c-33.43.07-56.63-12.07-67.42-44.65-.25-.76-1.42-1.22-2.16-1.82Z" transform="translate(-2.12 -92.45)"/></svg>