<svg id="Layer_1" data-name="Layer 1" xmlns="http://www.w3.org/2000/svg" viewBox="0 0 1075.81 895.1"><title>arrow-black</title><path d="M0,407.6c1.69-.21,2-1.55,2.52-2.86,11.79-29.35,29.31-41.25,61-41.25H776.08l1.67-2.83c-3-2.22-6.38-4.1-9-6.72Q662.88,248.09,557.27,142.12c-30.87-30.95-30.86-64.42,0-95.32q12.24-12.27,24.49-24.52C611.39-7.3,645.23-7.45,674.68,22Q769.41,116.61,864,211.31l188.6,188.61c30.92,30.93,30.89,64.23-.09,95.21L676,871.61c-31.22,31.21-64,31.32-95.16.33-8.68-8.64-17.4-17.25-26-26-27.64-27.89-27.61-61.77.35-89.68Q662.6,649,770.22,542c2.93-2.92,6.07-5.64,11.32-10.5H766.88q-348.63,0-697.27.24c-33.43.07-56.63-12.07-67.42-44.65-.25-.76-1.42-1.22-2.16-1.82Z" transform="translate(0 0)"/></svg>