<svg id="Layer_1" data-name="Layer 1" xmlns="http://www.w3.org/2000/svg" viewBox="0 0 776.46 1079.8"><defs><style>.cls-1{fill:#fff;}</style></defs><title>drop</title><path class="cls-1" d="M910.18,594.85C887.68,530,857.46,469,823.79,409.44c-75.75-133.88-165.3-258.87-250-387C555.69-4.83,524.55-4.19,506.34,23,463.16,87.34,419.76,151.58,377,216.25c-65.95,99.74-130.1,200.58-179.28,310C178,570.12,160.61,615,154.46,663,146.32,726.56,156.93,788.18,183,846c57.59,127.74,156.24,204.68,294.38,230.49,9,1.69,18.66.86,27.06,5.66h65.36c7.64-3.73,16.11-2.88,24.15-4,60.09-8.51,115.28-29.83,164.92-64.41,70.6-49.17,121-114.2,148.93-196C933,743.73,936.14,669.66,910.18,594.85Zm-69.32,182c-35.08,116-111,190.59-229.14,220.74-23.23,5.93-47.09,7.35-71,8.37-136,.6-258-88.38-298.85-218.85C223,726.7,223.59,666.57,246,606.53c27.94-74.91,66.55-144.24,107.48-212.47C410.68,298.7,474.09,207.37,535.81,115c2.57-3.85,4.13-7.41,8.37-1C630.92,244.8,721.73,373.15,793.45,513.36c23.95,46.8,45.52,94.69,55.42,146.9C856.37,699.82,852.32,738.94,840.86,776.83Z" transform="translate(-151.77 -2.3)"/><path class="cls-1" d="M802.15,713.23c-7.73,90.28-49.54,159.84-126.74,207.62-21.83,13.5-44,8.43-56.53-12-11.45-18.62-5.41-41.1,16.06-53.94,48.23-28.84,77.39-70.91,89.27-125.38a233.91,233.91,0,0,0,3.56-24.94c2.52-23.45,19.22-39.35,39.74-37.56,22.45,2,36.36,19.57,34.8,44C802.26,711.83,802.2,712.53,802.15,713.23Z" transform="translate(-151.77 -2.3)"/></svg>