<svg id="Layer_1" data-name="Layer 1" xmlns="http://www.w3.org/2000/svg" viewBox="0 0 405.73 130.68"><defs><style>.cls-1,.cls-2{fill:#fefefe;}.cls-2{fill-rule:evenodd;}</style></defs><title>drop</title><path class="cls-1" d="M622.78,808.07a26.65,26.65,0,0,0,10.22-1.9,23.43,23.43,0,0,0,7.93-5.27,24,24,0,0,0,5.14-7.93,28.23,28.23,0,0,0,0-20.05,24.06,24.06,0,0,0-5.14-7.93,23.55,23.55,0,0,0-7.93-5.26,28.3,28.3,0,0,0-20.44,0,23.55,23.55,0,0,0-7.93,5.26,24.06,24.06,0,0,0-5.14,7.93,28.23,28.23,0,0,0,0,20.05,24,24,0,0,0,5.14,7.93,23.43,23.43,0,0,0,7.93,5.27,26.65,26.65,0,0,0,10.22,1.9m33.63,6.22h-7.87V799.45h-.25a25.6,25.6,0,0,1-10.22,12,30.37,30.37,0,0,1-16.56,4.44,34.4,34.4,0,0,1-12.5-2.28,30.32,30.32,0,0,1-17.38-16.94,37.14,37.14,0,0,1-.13-27,30.39,30.39,0,0,1,7-10.47,32.49,32.49,0,0,1,10.66-6.85A36.24,36.24,0,0,1,622.78,750a37.21,37.21,0,0,1,13.58,2.41A30.36,30.36,0,0,1,647,759.22a31.3,31.3,0,0,1,6.91,10.59,35.94,35.94,0,0,1,2.48,13.52Zm-132.61,0v-6.85l44.79-48v-.25H525.7V751.6h54.57v6.86l-44.8,48v.26h46.07v7.61Zm-44.54-6.22a26.56,26.56,0,0,0,10.21-1.9,23.23,23.23,0,0,0,7.93-5.27,23.8,23.8,0,0,0,5.14-7.93,28.23,28.23,0,0,0,0-20.05A23.91,23.91,0,0,0,497.4,765a23.35,23.35,0,0,0-7.93-5.26,28.27,28.27,0,0,0-20.43,0,23.55,23.55,0,0,0-7.93,5.26,24.06,24.06,0,0,0-5.14,7.93A28.23,28.23,0,0,0,456,793a24,24,0,0,0,5.14,7.93,23.43,23.43,0,0,0,7.93,5.27A26.65,26.65,0,0,0,479.26,808.07Zm33.63,6.22H505V799.45h-.25a25.65,25.65,0,0,1-10.22,12A30.42,30.42,0,0,1,478,815.94a34.36,34.36,0,0,1-12.5-2.28,30.32,30.32,0,0,1-17.38-16.94,37,37,0,0,1-.13-27,30.25,30.25,0,0,1,7-10.47,32.38,32.38,0,0,1,10.66-6.85A36.24,36.24,0,0,1,479.26,750a37.21,37.21,0,0,1,13.58,2.41,30.45,30.45,0,0,1,10.66,6.85,31.3,31.3,0,0,1,6.91,10.59,35.94,35.94,0,0,1,2.48,13.52Zm-108.5-6.22a26.56,26.56,0,0,0,10.21-1.9,23.37,23.37,0,0,0,7.94-5.27,23.94,23.94,0,0,0,5.13-7.93,28.23,28.23,0,0,0,0-20.05,24,24,0,0,0-5.13-7.93,23.49,23.49,0,0,0-7.94-5.26,28.27,28.27,0,0,0-20.43,0,23.55,23.55,0,0,0-7.93,5.26,24.06,24.06,0,0,0-5.14,7.93,28.23,28.23,0,0,0,0,20.05,24,24,0,0,0,5.14,7.93,23.43,23.43,0,0,0,7.93,5.27A26.65,26.65,0,0,0,404.39,808.07ZM438.14,783a34.72,34.72,0,0,1-2.47,13.2,30.25,30.25,0,0,1-7,10.46A32.37,32.37,0,0,1,418,813.47a38.73,38.73,0,0,1-27.22,0,32.41,32.41,0,0,1-10.66-6.86,30.11,30.11,0,0,1-7-10.46,36.37,36.37,0,0,1,0-26.4,30.25,30.25,0,0,1,7-10.47,32.38,32.38,0,0,1,10.66-6.85,38.73,38.73,0,0,1,27.22,0,32.34,32.34,0,0,1,10.72,6.85,30.39,30.39,0,0,1,7,10.47A34.72,34.72,0,0,1,438.14,783Z" transform="translate(-250.68 -729.69)"/><path class="cls-1" d="M499,846.9l.94-2.73H510l.93,2.73Zm-3.88,4.34,8.44-18.75h3.43l8.46,18.75h-3.64l-7.26-16.9h1.39l-7.23,16.9Zm-27.76.27a8.24,8.24,0,0,1-6.05-2.17,8.49,8.49,0,0,1-2.18-6.27V832.49h3.48v10.44a6,6,0,0,0,1.25,4.21,5.37,5.37,0,0,0,7,0,6,6,0,0,0,1.23-4.21V832.49h3.43v10.58a8.45,8.45,0,0,1-2.18,6.27A8.19,8.19,0,0,1,467.31,851.51Zm-39.61-3.06a7.07,7.07,0,0,0,2.63-.48,6,6,0,0,0,2.09-1.38,6.5,6.5,0,0,0,1.38-2.1,7.33,7.33,0,0,0,0-5.27,6.56,6.56,0,0,0-1.38-2.09,6.35,6.35,0,0,0-2.09-1.38,7.42,7.42,0,0,0-5.25,0,6.24,6.24,0,0,0-2.09,1.38,6.56,6.56,0,0,0-1.38,2.09,7.19,7.19,0,0,0,0,5.27,6.5,6.5,0,0,0,1.38,2.1,6,6,0,0,0,2.09,1.38A7,7,0,0,0,427.7,848.45Zm6.14,6.89a8.14,8.14,0,0,1-1.92-.23,6.74,6.74,0,0,1-1.82-.75,11.59,11.59,0,0,1-1.86-1.37c-.64-.56-1.35-1.25-2.12-2.07l3.7-1a11.82,11.82,0,0,0,1.43,1.6,5,5,0,0,0,1.33.87,3.41,3.41,0,0,0,1.34.27,4.21,4.21,0,0,0,3.21-1.5l1.61,1.92A6.09,6.09,0,0,1,433.84,855.34Zm-6.11-3.83a10.88,10.88,0,0,1-4.05-.73,9.67,9.67,0,0,1-3.21-2,9.15,9.15,0,0,1-2.12-3,10.23,10.23,0,0,1,0-7.69,9.19,9.19,0,0,1,2.12-3.06,9.84,9.84,0,0,1,3.21-2,11,11,0,0,1,4-.72,10.9,10.9,0,0,1,4,.72,9.77,9.77,0,0,1,3.2,2,8.86,8.86,0,0,1,2.12,3.06,10.28,10.28,0,0,1,0,7.71,8.72,8.72,0,0,1-2.12,3,9.77,9.77,0,0,1-3.2,2A10.62,10.62,0,0,1,427.73,851.51Zm-45.1-4.61.94-2.73H393.7l.93,2.73Zm-3.88,4.34,8.44-18.75h3.43l8.46,18.75h-3.64l-7.26-16.9h1.39l-7.23,16.9Z" transform="translate(-250.68 -729.69)"/><path class="cls-1" d="M296.87,830.84h-.41c-18.53,0-14-17.94-.37-8.91,4.9,3.26,8.58,3.2,14.05,3.2-3.23,2.86-7.74,5.58-13.27,5.7" transform="translate(-250.68 -729.69)"/><path class="cls-1" d="M277,823c-16-16.1-19.17,24.86,12.21,25.61a28.23,28.23,0,0,0,28.23-28.23s-7.81,13.54-21.44,13.85c-9.77.22-14.38-6.4-19-11.23" transform="translate(-250.68 -729.69)"/><path class="cls-2" d="M277.56,761.86a24.06,24.06,0,0,1,6.73,16.75c-.25,14.31-24.54,21.11-24.54,44.38a31,31,0,1,0,62,0c0-24.16-37.55-42.48-37.3-64.9a32.72,32.72,0,0,1,16.25-28.4C328,748.35,365.79,809,341.51,841a46.32,46.32,0,0,1-13.7,12.06c-28.54,16.65-67.23,3.93-75.91-28.65-2.38-8.93-1.14-18.88,2.53-29.52,5.95-17.27,23.11-33,23.13-33" transform="translate(-250.68 -729.69)"/></svg>